<svg width="16" height="16" viewBox="0 0 16 16" fill="none" xmlns="http://www.w3.org/2000/svg">
<path d="M11.1667 2.37325V1.33325C11.1667 1.05992 10.94 0.833252 10.6667 0.833252C10.3933 0.833252 10.1667 1.05992 10.1667 1.33325V2.33325H5.83332V1.33325C5.83332 1.05992 5.60666 0.833252 5.33332 0.833252C5.05999 0.833252 4.83332 1.05992 4.83332 1.33325V2.37325C3.03332 2.53992 2.15999 3.61325 2.02666 5.20659C2.01332 5.39992 2.17332 5.55992 2.35999 5.55992H13.64C13.8333 5.55992 13.9933 5.39325 13.9733 5.20659C13.84 3.61325 12.9667 2.53992 11.1667 2.37325Z" fill="white"/>
<path d="M13.3333 6.56006H2.66667C2.3 6.56006 2 6.86006 2 7.22673V11.3334C2 13.3334 3 14.6667 5.33333 14.6667H10.6667C13 14.6667 14 13.3334 14 11.3334V7.22673C14 6.86006 13.7 6.56006 13.3333 6.56006ZM6.14 12.1401C6.07333 12.2001 6 12.2467 5.92 12.2801C5.84 12.3134 5.75333 12.3334 5.66667 12.3334C5.58 12.3334 5.49333 12.3134 5.41333 12.2801C5.33333 12.2467 5.26 12.2001 5.19333 12.1401C5.07333 12.0134 5 11.8401 5 11.6667C5 11.4934 5.07333 11.3201 5.19333 11.1934C5.26 11.1334 5.33333 11.0867 5.41333 11.0534C5.57333 10.9867 5.76 10.9867 5.92 11.0534C6 11.0867 6.07333 11.1334 6.14 11.1934C6.26 11.3201 6.33333 11.4934 6.33333 11.6667C6.33333 11.8401 6.26 12.0134 6.14 12.1401ZM6.28 9.58673C6.24667 9.66673 6.2 9.74006 6.14 9.80673C6.07333 9.86673 6 9.91339 5.92 9.94673C5.84 9.98006 5.75333 10.0001 5.66667 10.0001C5.58 10.0001 5.49333 9.98006 5.41333 9.94673C5.33333 9.91339 5.26 9.86673 5.19333 9.80673C5.13333 9.74006 5.08667 9.66673 5.05333 9.58673C5.02 9.50673 5 9.42006 5 9.33339C5 9.24673 5.02 9.16006 5.05333 9.08006C5.08667 9.00006 5.13333 8.92673 5.19333 8.86006C5.26 8.80006 5.33333 8.75339 5.41333 8.72006C5.57333 8.65339 5.76 8.65339 5.92 8.72006C6 8.75339 6.07333 8.80006 6.14 8.86006C6.2 8.92673 6.24667 9.00006 6.28 9.08006C6.31333 9.16006 6.33333 9.24673 6.33333 9.33339C6.33333 9.42006 6.31333 9.50673 6.28 9.58673ZM8.47333 9.80673C8.40667 9.86673 8.33333 9.91339 8.25333 9.94673C8.17333 9.98006 8.08667 10.0001 8 10.0001C7.91333 10.0001 7.82667 9.98006 7.74667 9.94673C7.66667 9.91339 7.59333 9.86673 7.52667 9.80673C7.40667 9.68006 7.33333 9.50673 7.33333 9.33339C7.33333 9.16006 7.40667 8.98673 7.52667 8.86006C7.59333 8.80006 7.66667 8.75339 7.74667 8.72006C7.90667 8.64673 8.09333 8.64673 8.25333 8.72006C8.33333 8.75339 8.40667 8.80006 8.47333 8.86006C8.59333 8.98673 8.66667 9.16006 8.66667 9.33339C8.66667 9.50673 8.59333 9.68006 8.47333 9.80673Z" fill="white"/>
</svg>
