<svg width="16" height="16" viewBox="0 0 16 16" fill="none" xmlns="http://www.w3.org/2000/svg">
<path fill-rule="evenodd" clip-rule="evenodd" d="M0.416 4.6584C0 5.416 0 6.332 0 8.1624V9.38C0 12.5 -9.53674e-08 14.0608 0.9376 15.0304C1.8744 16 3.3832 16 6.4 16H9.6C12.6168 16 14.1256 16 15.0624 15.0304C16 14.0608 16 12.5008 16 9.38V8.1632C16 6.332 16 5.4168 15.584 4.6584C15.1696 3.8992 14.4104 3.4288 12.8928 2.4864L11.2928 1.4936C9.6888 0.4976 8.8864 0 8 0C7.1136 0 6.312 0.4976 4.7072 1.4936L3.1072 2.4864C1.5896 3.4288 0.8312 3.8992 0.416 4.6584ZM7.4 12.8C7.4 12.9591 7.46321 13.1117 7.57574 13.2243C7.68826 13.3368 7.84087 13.4 8 13.4C8.15913 13.4 8.31174 13.3368 8.42426 13.2243C8.53679 13.1117 8.6 12.9591 8.6 12.8V10.4C8.6 10.2409 8.53679 10.0883 8.42426 9.97574C8.31174 9.86321 8.15913 9.8 8 9.8C7.84087 9.8 7.68826 9.86321 7.57574 9.97574C7.46321 10.0883 7.4 10.2409 7.4 10.4V12.8Z" fill="white"/>
</svg>
