<svg width="24" height="26" viewBox="0 0 24 26" fill="none" xmlns="http://www.w3.org/2000/svg">
<g clip-path="url(#clip0_5_539)">
<path d="M23.7663 13.2949C23.7663 12.4248 23.7001 11.55 23.559 10.694H12.2402V15.623H18.722C18.453 17.2127 17.5888 18.619 16.3233 19.5126V22.7109H20.1903C22.4611 20.4815 23.7663 17.1892 23.7663 13.2949Z" fill="#4285F4"/>
<path d="M12.2401 25.8009C15.4766 25.8009 18.2059 24.6674 20.1945 22.7108L16.3276 19.5126C15.2517 20.2934 13.8627 20.7355 12.2445 20.7355C9.11388 20.7355 6.45946 18.4826 5.50705 15.4537H1.5166V18.7507C3.55371 23.073 7.7029 25.8009 12.2401 25.8009Z" fill="#34A853"/>
<path d="M5.50277 15.4536C5.00011 13.8639 5.00011 12.1425 5.50277 10.5528V7.2558H1.51674C-0.185266 10.8726 -0.185266 15.1338 1.51674 18.7506L5.50277 15.4536Z" fill="#FBBC04"/>
<path d="M12.2401 5.26632C13.9509 5.2381 15.6044 5.92478 16.8434 7.18526L20.2695 3.5308C18.1001 1.35788 15.2208 0.163248 12.2401 0.200875C7.7029 0.200875 3.55371 2.92878 1.5166 7.25581L5.50264 10.5528C6.45064 7.51919 9.10947 5.26632 12.2401 5.26632Z" fill="#EA4335"/>
</g>
<defs>
<clipPath id="clip0_5_539">
<rect width="24" height="25.6" fill="white" transform="translate(0 0.200012)"/>
</clipPath>
</defs>
</svg>
