<svg width="28" height="27" viewBox="0 0 28 27" fill="none" xmlns="http://www.w3.org/2000/svg">
<path d="M6.55909 21.1962C6.3265 21.1497 6.14043 21.1032 5.90783 21.0102C5.67524 20.9171 5.48917 20.8706 5.30309 20.7776C4.88443 20.5915 4.51228 20.3589 4.14014 20.0798C3.39584 19.5681 2.7911 18.8703 2.32592 18.033C1.86073 17.2422 1.58162 16.3118 1.53511 15.428C1.48859 14.9628 1.53511 14.5441 1.58162 14.0789C1.62814 13.8463 1.67466 13.6603 1.72118 13.4277C1.7677 13.1951 1.86073 13.009 1.90725 12.7764L1.95377 13.4277C1.95377 13.6603 2.00029 13.8463 2.04681 14.0789C2.09333 14.4976 2.18636 14.9163 2.2794 15.2884C2.46547 16.0792 2.74458 16.8235 3.16325 17.5213C3.58191 18.2191 4.0471 18.8703 4.65184 19.4751C4.93095 19.7542 5.25658 20.0333 5.5822 20.3124C5.72176 20.452 5.90783 20.5915 6.09391 20.7311L6.55909 21.1962ZM6.41954 22.8709C6.27998 22.9639 6.09391 23.0105 5.90783 23.057C5.72176 23.1035 5.5822 23.15 5.39613 23.15C5.0705 23.1965 4.69836 23.2431 4.32621 23.1965C3.62843 23.15 2.88414 22.9639 2.2794 22.6383C1.62814 22.3127 1.06992 21.801 0.697776 21.1962C0.511702 20.9171 0.325629 20.5915 0.186074 20.2659C0.139555 20.1263 0.0930367 19.9403 0.0465183 19.7542C0.0465183 19.6146 0 19.4751 0 19.289C0.139555 19.4286 0.232592 19.5681 0.325629 19.6611C0.465184 19.8007 0.558221 19.9403 0.651257 20.0333C0.883849 20.2659 1.06992 20.4985 1.30251 20.6845C1.7677 21.1032 2.23288 21.4754 2.7911 21.7545C3.3028 22.0336 3.90754 22.2662 4.46576 22.4522C4.74487 22.5453 5.0705 22.5918 5.39613 22.6848C5.53569 22.7314 5.72176 22.7314 5.86132 22.7779C6.09391 22.8244 6.23346 22.8244 6.41954 22.8709ZM16.9327 0.262978C17.1653 0.309496 17.3514 0.402533 17.5839 0.49557C17.8165 0.588606 18.0026 0.681643 18.1887 0.77468C18.6073 1.00727 18.9795 1.23986 19.3516 1.51897C20.0959 2.07719 20.7007 2.82149 21.1193 3.65882C21.538 4.49615 21.7706 5.42652 21.7706 6.31037C21.7706 6.77555 21.7241 7.19422 21.631 7.6594C21.5845 7.89199 21.538 8.07806 21.445 8.31066C21.3519 8.54325 21.3054 8.72932 21.2124 8.9154L21.1659 8.26414C21.1659 8.03155 21.1659 7.84547 21.1193 7.61288L20.9798 6.35688C20.8402 5.56607 20.5611 4.77526 20.189 4.03097C19.8168 3.28667 19.3516 2.63542 18.7934 2.03068C18.5143 1.70505 18.1887 1.42594 17.9096 1.10031C17.77 0.960754 17.5839 0.821198 17.3979 0.681643L16.9327 0.262978ZM20.9798 0.0769043C21.1659 0.123423 21.3054 0.169941 21.445 0.262978C21.5845 0.309496 21.7706 0.402533 21.9102 0.49557C22.1893 0.681643 22.4684 0.867717 22.7475 1.10031C23.2592 1.56549 23.6779 2.12371 23.9104 2.77497C24.1896 3.42623 24.2826 4.124 24.1896 4.82178C24.143 5.14741 24.05 5.47304 23.957 5.79866C23.9104 5.93822 23.8174 6.12429 23.7709 6.26385C23.6779 6.4034 23.6313 6.54296 23.4918 6.68251V5.75215C23.4918 5.42652 23.4453 5.14741 23.4453 4.8683C23.3522 4.26356 23.2592 3.70534 23.0266 3.19364C22.794 2.63542 22.5149 2.17023 22.1893 1.65853C22.0032 1.42594 21.8171 1.14683 21.631 0.914235C21.538 0.77468 21.445 0.681643 21.3054 0.542088C21.2124 0.309496 21.0728 0.169941 20.9798 0.0769043Z" fill="#00AC6F"/>
<path d="M3.72227 7.00896C2.7919 7.42763 2.46627 8.54407 2.88494 9.47443L8.74625 21.7088L12.0025 20.1737L6.14122 7.89281C5.72256 6.96244 4.65264 6.54378 3.72227 7.00896ZM19.1198 16.7313L22.5622 15.1032L15.8636 1.14765C15.3984 0.217278 14.2819 -0.201387 13.3051 0.263797C12.3747 0.72898 11.956 1.84542 12.4212 2.82231L19.1198 16.7313Z" fill="#FFDD67"/>
<path d="M13.3487 0.217138C13.2557 0.263656 13.1626 0.310175 13.0696 0.403211C13.9534 0.170619 14.8838 0.589285 15.3025 1.42662L22.0011 15.3821L22.6058 15.103L15.9072 1.14751C15.442 0.17062 14.3256 -0.248046 13.3487 0.217138Z" fill="#EBA352"/>
<path d="M11.9994 20.1272L15.5813 18.4061L8.74314 4.17143C8.27796 3.19455 7.06848 2.72936 6.0916 3.19455C5.11471 3.65973 4.69605 4.86921 5.16123 5.8461L11.9994 20.1272Z" fill="#FFDD67"/>
<path d="M6.09405 3.24057C6.00102 3.28709 5.90798 3.33361 5.81494 3.42665C6.69879 3.19405 7.72219 3.61272 8.14086 4.49657L12.374 13.3816L13.3974 13.9863L8.7456 4.21746C8.28041 3.19405 7.11746 2.77539 6.09405 3.24057Z" fill="#EBA352"/>
<path d="M15.0238 17.2888L18.6058 15.5677L11.7676 1.33303C11.3024 0.356144 10.0929 -0.10904 9.11601 0.402662C8.13913 0.867846 7.72046 2.07732 8.18564 3.05421L15.0238 17.2888Z" fill="#FFDD67"/>
<path d="M9.1186 0.357271C9.02556 0.403789 8.93253 0.496826 8.83949 0.543344C9.72334 0.310752 10.7467 0.729418 11.1654 1.61327L15.9568 11.6612L16.9802 12.266L11.7701 1.33416C11.305 0.310753 10.0955 -0.107913 9.1186 0.357271ZM3.72247 7.0094C3.62943 7.05592 3.5364 7.10244 3.44336 7.19547C4.28069 6.96288 5.16454 7.38155 5.53669 8.21888L9.02556 15.5223L10.049 16.127L6.14142 7.93977C5.72276 6.96288 4.65284 6.54421 3.72247 7.0094Z" fill="#EBA352"/>
<path d="M27.3515 5.61294C26.0955 4.63605 24.0487 5.70598 23.0253 9.0553C22.3275 11.3812 22.2345 12.079 20.7459 12.7768L19.9086 11.0556C19.9086 11.0556 6.69737 17.4286 7.20907 18.452C7.20907 18.452 8.79069 23.383 11.4888 25.6624C15.4893 29.1047 24.8395 25.4298 25.2582 16.5448C25.4908 11.3812 28.7006 6.68286 27.3515 5.61294Z" fill="#FFDD67"/>
<path d="M27.3543 5.61323C27.1217 5.42715 26.8426 5.33412 26.5635 5.2876C26.61 5.33412 26.7031 5.33412 26.7496 5.38063C28.1451 6.45056 26.7031 8.91603 25.9123 11.1489C25.261 12.9166 24.7028 14.7308 24.7958 16.4985C25.168 24.2206 17.3994 27.8955 12.7476 26.5C17.3064 28.4072 25.7727 24.7788 25.4006 16.7311C25.3075 14.9634 25.8192 13.2422 26.517 11.3815C27.2613 9.14862 28.7034 6.68315 27.3543 5.61323Z" fill="#EBA352"/>
<path d="M21.1676 12.592C18.2834 12.9177 14.0503 17.0578 17.0274 21.5701C14.8411 17.0113 18.423 13.9411 20.7024 12.8712C20.935 12.6851 21.1676 12.592 21.1676 12.592Z" fill="#EBA352"/>
</svg>
